<?xml version="1.0" encoding="UTF-8"?>
<!DOCTYPE svg PUBLIC "-//W3C//DTD SVG 1.1//EN" "http://www.w3.org/Graphics/SVG/1.1/DTD/svg11.dtd">
<!-- Creator: CorelDRAW X6 -->
<svg xmlns="http://www.w3.org/2000/svg" xml:space="preserve" width="267.347mm" height="97.9916mm" version="1.1" style="shape-rendering:geometricPrecision; text-rendering:geometricPrecision; image-rendering:optimizeQuality; fill-rule:evenodd; clip-rule:evenodd"
viewBox="0 0 67128 24605"
 xmlns:xlink="http://www.w3.org/1999/xlink">
 <defs>
  <style type="text/css">
   <![CDATA[
    .fil0 {fill:#FEFEFE;fill-rule:nonzero}
   ]]>
  </style>
 </defs>
 <g id="Layer_x0020_1">
  <metadata id="CorelCorpID_0Corel-Layer"/>
  <path class="fil0" d="M0 12302c1,253 15,496 42,747 31,269 76,527 137,791 77,323 173,628 292,938 114,289 241,561 388,835l59 108c323,570 695,1074 1133,1560 276,302 562,578 871,846 301,258 609,495 934,721 430,297 869,560 1331,805 416,217 835,411 1269,588 472,190 945,355 1433,500 528,155 1056,283 1596,388 533,101 1062,178 1602,232 610,59 1214,89 1827,90l0 -2511c-553,-1 -1096,-29 -1646,-84 -1956,-206 -3900,-768 -5581,-1809 -1049,-658 -1993,-1501 -2600,-2592 -372,-681 -572,-1376 -576,-2154 4,-764 197,-1446 556,-2117 709,-1298 1906,-2263 3190,-2959 1552,-831 3266,-1295 5011,-1479 268,-27 534,-48 801,-61l0 3132 7638 -4411 -7638 -4408 0 3172c-275,12 -549,31 -825,55 -542,50 -1073,122 -1609,219 -664,123 -1311,280 -1956,480 -506,158 -996,338 -1484,546 -471,203 -922,425 -1369,676 -411,234 -802,484 -1186,761 -371,271 -717,556 -1053,870 -295,279 -565,565 -825,877 -226,276 -430,555 -623,856 -166,264 -313,527 -449,807 -124,262 -231,521 -325,795 -93,275 -166,545 -227,830 -54,266 -91,525 -115,796 -15,189 -23,373 -24,562z"/>
  <path class="fil0" d="M67128 12302c-1,-253 -15,-496 -42,-747 -31,-269 -76,-527 -137,-791 -77,-323 -173,-628 -292,-938 -114,-289 -241,-561 -388,-835l-59 -108c-323,-570 -695,-1074 -1133,-1560 -276,-302 -562,-578 -871,-846 -301,-258 -609,-495 -934,-721 -430,-297 -869,-560 -1331,-805 -416,-217 -835,-411 -1269,-588 -472,-190 -945,-355 -1433,-500 -528,-155 -1056,-283 -1596,-388 -533,-101 -1062,-178 -1602,-232 -610,-59 -1214,-89 -1827,-90l0 2511c553,1 1096,29 1646,84 1956,206 3900,768 5581,1809 1049,658 1993,1501 2600,2592 372,681 572,1376 576,2154 -4,764 -197,1446 -556,2117 -709,1298 -1906,2263 -3190,2959 -1552,831 -3266,1295 -5011,1479 -268,27 -534,48 -801,61l0 -3132 -7638 4411 7638 4408 0 -3172c275,-12 549,-31 825,-55 542,-50 1073,-122 1609,-219 664,-123 1311,-280 1956,-480 506,-158 996,-338 1484,-546 471,-203 922,-425 1369,-676 411,-234 802,-484 1186,-761 371,-271 717,-556 1053,-870 295,-279 565,-565 825,-877 226,-276 430,-555 623,-856 166,-264 313,-527 449,-807 124,-262 231,-521 325,-795 93,-275 166,-545 227,-830 54,-266 91,-525 115,-796 15,-189 23,-373 24,-562z"/>
  <path class="fil0" d="M23659 5403c1575,0 2780,289 3615,866 835,578 1252,1460 1252,2646 0,1481 -730,2484 -2190,3009 200,242 425,536 677,882 252,347 509,722 772,1126 263,404 515,819 756,1244 242,425 457,843 646,1252l-2221 0c-200,-378 -415,-759 -646,-1142 -231,-383 -465,-756 -701,-1118 -236,-362 -470,-704 -701,-1024 -231,-320 -446,-606 -646,-859 -147,10 -273,16 -378,16 -105,0 -205,0 -299,0l-961 0 0 4127 -1985 0 0 -10759c483,-105 998,-176 1544,-213 546,-37 1034,-55 1465,-55zm142 1717c-420,0 -809,16 -1166,47l0 3529 866 0c483,0 908,-26 1276,-79 368,-53 675,-147 922,-284 247,-137 433,-320 559,-551 126,-231 189,-525 189,-882 0,-336 -63,-620 -189,-851 -126,-231 -307,-415 -543,-551 -236,-137 -517,-234 -843,-291 -326,-58 -683,-87 -1071,-87z"/>
  <path id="1" class="fil0" d="M32213 10963c0,599 74,1142 221,1630 147,488 360,903 638,1244 278,341 617,606 1016,795 399,189 851,284 1355,284 494,0 940,-95 1339,-284 399,-189 738,-454 1016,-795 278,-341 491,-756 638,-1244 147,-488 221,-1032 221,-1630 0,-599 -73,-1142 -221,-1630 -147,-488 -360,-903 -638,-1244 -278,-341 -617,-606 -1016,-795 -399,-189 -845,-284 -1339,-284 -504,0 -956,95 -1355,284 -399,189 -738,457 -1016,803 -278,347 -491,761 -638,1244 -147,483 -221,1024 -221,1622zm8522 0c0,788 -100,1496 -299,2127 -200,630 -478,1179 -835,1646 -357,467 -774,848 -1252,1142 -478,294 -1000,504 -1567,630 31,221 142,410 331,567 189,158 428,289 717,394 289,105 620,192 992,260 373,68 764,118 1174,150l-441 1496c-1355,-105 -2431,-365 -3229,-780 -798,-415 -1307,-1074 -1528,-1977 -651,-63 -1258,-231 -1819,-504 -562,-273 -1053,-646 -1473,-1118 -420,-473 -751,-1045 -992,-1717 -242,-672 -362,-1444 -362,-2316 0,-935 142,-1756 425,-2465 284,-709 669,-1305 1158,-1788 488,-483 1053,-845 1693,-1087 641,-242 1318,-362 2032,-362 714,0 1391,121 2032,362 641,242 1200,604 1678,1087 478,483 859,1079 1142,1788 284,709 425,1531 425,2465z"/>
  <polygon id="2" class="fil0" points="49808,14712 49808,16429 42908,16429 42908,5513 44893,5513 44893,14712 "/>
 </g>
</svg>
