<?xml version="1.0" encoding="UTF-8"?>
<!DOCTYPE svg PUBLIC "-//W3C//DTD SVG 1.1//EN" "http://www.w3.org/Graphics/SVG/1.1/DTD/svg11.dtd">
<!-- Creator: CorelDRAW X7.3 EN Portable -->
<svg xmlns="http://www.w3.org/2000/svg" xml:space="preserve" width="378.774mm" height="208.919mm" version="1.1" style="shape-rendering:geometricPrecision; text-rendering:geometricPrecision; image-rendering:optimizeQuality; fill-rule:evenodd; clip-rule:evenodd"
viewBox="0 0 6657 3672"
 xmlns:xlink="http://www.w3.org/1999/xlink">
 <defs>
  <style type="text/css">
   <![CDATA[
    .str1 {stroke:#FEFEFE;stroke-width:87.8704;stroke-linecap:round}
    .str0 {stroke:#FEFEFE;stroke-width:70.2963;stroke-linecap:round;stroke-linejoin:round}
    .fil3 {fill:none}
    .fil1 {fill:none;fill-rule:nonzero}
    .fil0 {fill:#FEFEFE}
    .fil4 {fill:#F2AF3A}
    .fil2 {fill:#F2AF3A;fill-rule:nonzero}
   ]]>
  </style>
   <clipPath id="id0" style="clip-rule:nonzero">
    <path d="M2120 2766c0,148 -118,280 -309,376 -188,94 -447,152 -734,152 -286,0 -545,-58 -733,-152 -191,-96 -309,-228 -309,-376l0 -530c0,-54 16,-105 44,-153 -28,-49 -44,-100 -44,-153l0 -531c0,-53 16,-104 44,-153 -28,-48 -44,-99 -44,-152l0 -531c0,-148 118,-280 309,-376 188,-94 447,-152 733,-152 287,0 546,58 734,152 191,96 309,228 309,376l0 531c0,53 -16,104 -44,152 28,49 44,100 44,153l0 531c0,53 -16,104 -44,153 28,48 44,99 44,153l0 530zm-2058 -448c78,245 503,432 1015,432 513,0 938,-187 1016,-432l0 -82c0,-45 -11,-87 -33,-128 -53,75 -139,142 -249,197 -188,94 -447,153 -734,153 -286,0 -545,-59 -733,-153 -110,-55 -196,-122 -249,-197 -22,41 -33,83 -33,128l0 82zm0 -836c78,245 503,432 1015,432 513,0 938,-187 1016,-432l0 -83c0,-44 -11,-87 -33,-128 -53,76 -139,143 -249,198 -188,94 -447,152 -734,152 -286,0 -545,-58 -733,-152 -110,-55 -196,-122 -249,-198 -22,41 -33,84 -33,128l0 83zm0 -837c78,245 503,432 1015,432 513,0 938,-187 1016,-432l0 -82c0,-137 -112,-261 -294,-352 -184,-92 -439,-149 -722,-149 -282,0 -537,57 -721,149 -182,91 -294,215 -294,352l0 82z"/>
   </clipPath>
 </defs>
 <g id="Layer_x0020_1">
  <metadata id="CorelCorpID_0Corel-Layer"/>
  <ellipse class="fil0" cx="1077" cy="2223" rx="1016" ry="508"/>
  <ellipse class="fil0" cx="1077" cy="1381" rx="1016" ry="508"/>
  <g>
   <path class="fil1 str0" d="M2120 2766c0,148 -118,280 -309,376 -188,94 -447,152 -734,152 -286,0 -545,-58 -733,-152 -191,-96 -309,-228 -309,-376l0 -530c0,-54 16,-105 44,-153 -28,-49 -44,-100 -44,-153l0 -531c0,-53 16,-104 44,-153 -28,-48 -44,-99 -44,-152l0 -531c0,-148 118,-280 309,-376 188,-94 447,-152 733,-152 287,0 546,58 734,152 191,96 309,228 309,376l0 531c0,53 -16,104 -44,152 28,49 44,100 44,153l0 531c0,53 -16,104 -44,153 28,48 44,99 44,153l0 530zm-2058 -448c78,245 503,432 1015,432 513,0 938,-187 1016,-432l0 -82c0,-45 -11,-87 -33,-128 -53,75 -139,142 -249,197 -188,94 -447,153 -734,153 -286,0 -545,-59 -733,-153 -110,-55 -196,-122 -249,-197 -22,41 -33,83 -33,128l0 82zm0 -836c78,245 503,432 1015,432 513,0 938,-187 1016,-432l0 -83c0,-44 -11,-87 -33,-128 -53,76 -139,143 -249,198 -188,94 -447,152 -734,152 -286,0 -545,-58 -733,-152 -110,-55 -196,-122 -249,-198 -22,41 -33,84 -33,128l0 83zm0 -837c78,245 503,432 1015,432 513,0 938,-187 1016,-432l0 -82c0,-137 -112,-261 -294,-352 -184,-92 -439,-149 -722,-149 -282,0 -537,57 -721,149 -182,91 -294,215 -294,352l0 82z"/>
  </g>
  <path id="1" class="fil2" d="M2120 2766c0,148 -118,280 -309,376 -188,94 -447,152 -734,152 -286,0 -545,-58 -733,-152 -191,-96 -309,-228 -309,-376l0 -530c0,-54 16,-105 44,-153 -28,-49 -44,-100 -44,-153l0 -531c0,-53 16,-104 44,-153 -28,-48 -44,-99 -44,-152l0 -531c0,-148 118,-280 309,-376 188,-94 447,-152 733,-152 287,0 546,58 734,152 191,96 309,228 309,376l0 531c0,53 -16,104 -44,152 28,49 44,100 44,153l0 531c0,53 -16,104 -44,153 28,48 44,99 44,153l0 530zm-2058 -448c78,245 503,432 1015,432 513,0 938,-187 1016,-432l0 -82c0,-45 -11,-87 -33,-128 -53,75 -139,142 -249,197 -188,94 -447,153 -734,153 -286,0 -545,-59 -733,-153 -110,-55 -196,-122 -249,-197 -22,41 -33,83 -33,128l0 82zm0 -836c78,245 503,432 1015,432 513,0 938,-187 1016,-432l0 -83c0,-44 -11,-87 -33,-128 -53,76 -139,143 -249,198 -188,94 -447,152 -734,152 -286,0 -545,-58 -733,-152 -110,-55 -196,-122 -249,-198 -22,41 -33,84 -33,128l0 83zm0 -837c78,245 503,432 1015,432 513,0 938,-187 1016,-432l0 -82c0,-137 -112,-261 -294,-352 -184,-92 -439,-149 -722,-149 -282,0 -537,57 -721,149 -182,91 -294,215 -294,352l0 82z"/>
  <g style="clip-path:url(#id0)">
   <g>
    <path id="2" class="fil0" d="M2847 2340c14,2 28,7 39,16l356 -371c-8,-10 -14,-21 -17,-34l-306 29c-1,41 -32,74 -72,79l0 281zm323 -714l110 228c8,-3 17,-4 26,-4 35,0 65,21 78,52l325 -86c-1,-3 -1,-7 -1,-10 0,-20 6,-37 17,-52l-123 -123c-14,11 -32,18 -51,18 -43,0 -78,-33 -83,-75l-261 -6c-3,24 -17,45 -37,58zm91 237l-109 -228c-9,3 -18,4 -27,4 -14,0 -27,-3 -38,-9l-195 285c12,11 22,26 26,44l305 -29c1,-28 16,-53 38,-67zm359 565l140 -545c-21,-8 -38,-25 -46,-46l-325 85c0,3 1,7 1,11 0,28 -15,53 -36,68l227 432c9,-4 19,-6 29,-6 3,0 7,1 10,1zm161 -540l-141 545c31,12 53,42 53,78 0,46 -37,83 -83,83 -32,0 -59,-18 -73,-44l-258 102c2,6 3,13 3,20 0,29 -15,55 -38,70l35 72c9,-3 18,-5 27,-5 46,0 84,38 84,84 0,45 -38,83 -84,83 -14,0 -28,-4 -39,-10l-178 247c16,16 26,37 26,61 0,46 -37,84 -83,84 -6,0 -13,-1 -19,-2l-109 295c27,14 45,42 45,74 0,46 -37,83 -83,83 -12,0 -23,-2 -33,-6l-132 229c20,15 32,39 32,66 0,46 -37,83 -83,83 -29,0 -55,-15 -70,-38l-115 56c3,8 4,17 4,26 0,46 -37,84 -83,84 -46,0 -83,-38 -83,-84 0,-12 2,-24 7,-35l-242 -152c-15,19 -38,31 -64,31 -46,0 -83,-38 -83,-84 0,-46 37,-83 83,-83 2,0 4,0 6,0l85 -435c-30,-10 -53,-37 -56,-69l-354 -4c-5,41 -40,72 -82,72 -46,0 -83,-37 -83,-83 0,-9 1,-18 4,-26l-498 -237c-15,23 -40,38 -70,38 -46,0 -83,-37 -83,-83 0,-4 0,-7 0,-10l-383 -93c-12,31 -42,54 -77,54 -34,0 -63,-21 -76,-50l-244 75c1,4 1,9 1,14 0,46 -37,83 -83,83 -46,0 -83,-37 -83,-83 0,-7 1,-14 2,-21l-218 -86c-14,26 -42,43 -73,43 -46,0 -83,-37 -83,-83 0,-27 12,-51 32,-66l-136 -230c-10,5 -22,7 -33,7 -46,0 -84,-37 -84,-83 0,-31 17,-58 42,-72l-240 -577c-7,2 -14,3 -22,3 -46,0 -83,-38 -83,-84 0,-46 37,-83 83,-83 20,0 38,7 53,19l566 -542c-11,-14 -17,-31 -17,-50 0,-46 38,-83 84,-83 28,0 53,14 68,36l549 -286c-4,-9 -5,-19 -5,-29 0,-46 37,-83 83,-83 36,0 66,22 78,54l603 -139c0,-3 -1,-6 -1,-8 0,-46 38,-84 84,-84 45,0 83,37 83,83l326 39c9,-36 41,-63 80,-63 46,0 84,37 84,83 0,2 -1,3 -1,5l602 108c10,-34 42,-59 79,-59 46,0 83,37 83,83 0,6 0,11 -1,17l421 139c13,-28 42,-48 75,-48 46,0 83,37 83,83 0,18 -5,34 -14,48l140 125c15,-13 34,-21 55,-21 46,0 84,37 84,83 0,27 -13,50 -32,66l110 182c11,-5 22,-8 34,-8 46,0 83,38 83,84 0,19 -6,37 -17,51l123 123c14,-11 32,-18 51,-18 46,0 83,38 83,84 0,45 -37,83 -83,83 -3,0 -7,0 -10,-1zm-1411 2255l-18 -262c-27,-1 -50,-15 -64,-35l-206 109c3,9 5,19 5,29 0,13 -3,25 -8,36l242 152c12,-15 29,-26 49,-29zm52 -293l178 181c14,-11 31,-17 50,-17 12,0 23,2 33,6l132 -229c-14,-11 -25,-26 -30,-44l-345 50 0 1c0,20 -7,38 -18,52zm163 195l-178 -181c-10,8 -22,14 -35,16l18 261c28,2 52,16 66,38l115 -56c-3,-8 -4,-17 -4,-26 0,-19 7,-37 18,-52zm-513 -108l207 -109c-4,-9 -6,-19 -6,-30 0,-27 13,-51 33,-66l-153 -268c-9,4 -20,6 -32,6 -2,0 -3,0 -5,0l-86 435c17,6 32,17 42,32zm99 -483l153 267c10,-4 21,-6 32,-6 7,0 13,1 19,2l90 -241c-25,-13 -42,-38 -45,-67l-216 -8c-4,21 -16,40 -33,53zm626 224l-239 -214c-15,13 -34,21 -55,21 -6,0 -13,-1 -19,-2l-89 241c20,11 36,30 42,52l345 -50 0 -1c0,-18 6,-34 15,-47zm-225 -229l239 213c15,-13 34,-20 55,-20 6,0 12,0 19,2l109 -296c-18,-9 -32,-25 -40,-44l-368 88c0,4 1,7 1,10 0,17 -6,34 -15,47zm122 -2207l369 258c12,-13 28,-23 47,-26l-24 -384c-29,-1 -54,-18 -67,-41l-318 132c2,7 3,15 3,22 0,14 -3,28 -10,39zm358 275l-369 -258c-10,11 -23,19 -37,24l39 214c1,0 3,0 4,0 41,0 75,29 82,68l271 -15c1,-12 4,-23 10,-33zm-497 1467l411 240c8,-11 19,-20 32,-25l-64 -205c-5,1 -10,1 -14,1 -40,0 -74,-28 -82,-65l-276 24c0,11 -3,21 -7,30zm26 388l368 -88c0,-3 0,-6 0,-10 0,-11 2,-22 7,-32l-411 -240c-12,16 -31,27 -51,31l15 286c33,2 61,24 72,53zm-377 8l217 8c6,-35 33,-62 67,-68l-15 -286c-14,-1 -27,-5 -39,-12l-252 308c12,13 21,30 22,50zm-122 -66l-156 -409c-7,1 -13,2 -20,2 -11,0 -21,-2 -30,-6l-225 413c19,13 32,34 35,58l353 4c4,-27 20,-50 43,-62zm-449 -10l224 -412c-13,-10 -24,-24 -29,-40l-314 72c0,2 0,5 0,8 0,31 -18,59 -44,73l113 296c6,-2 13,-3 20,-3 11,0 21,2 30,6zm312 -407l157 409c6,-1 13,-2 19,-2 17,0 32,4 45,13l252 -308c-14,-15 -22,-36 -22,-58 0,-2 0,-5 0,-8l-412 -91c-7,20 -21,36 -39,45zm-381 411l-113 -295c-7,1 -13,2 -20,2 -34,0 -63,-20 -76,-50l-317 95c1,4 1,9 1,14 0,9 -1,18 -4,26l498 237c7,-12 18,-22 31,-29zm-816 -604l175 293c10,-4 21,-7 33,-7 1,0 2,0 3,0l76 -463c-18,-6 -34,-17 -44,-32l-216 114c3,9 5,19 5,29 0,27 -13,50 -32,66zm369 -198l272 354c12,-7 27,-12 42,-12 7,0 15,1 21,3l134 -331c-22,-13 -38,-36 -42,-63l-402 0c-3,19 -12,36 -25,49zm-212 502l-175 -294c-10,5 -22,7 -33,7 -19,0 -36,-6 -49,-16l-171 183c12,15 19,33 19,53 0,4 0,7 -1,10l383 93c6,-14 15,-27 27,-36zm127 32l317 -95c-1,-4 -1,-9 -1,-13 0,-23 9,-44 25,-60l-272 -353c-12,7 -27,11 -42,11 -1,0 -2,0 -3,0l-76 464c23,7 42,24 52,46zm574 -513l-134 332c17,10 30,25 37,44l314 -71c0,-3 0,-5 0,-8 0,-24 10,-45 25,-60l-180 -244c-12,6 -26,10 -41,10 -7,0 -15,-1 -21,-3zm78 -20l181 244c12,-6 26,-10 41,-10 4,0 7,0 11,0l66 -251c-26,-10 -45,-32 -51,-60l-222 20c-1,22 -10,43 -26,57zm305 325l411 91c10,-27 35,-48 64,-54l-21 -388c-20,-1 -38,-10 -52,-24l-414 324c8,13 12,27 12,43 0,3 0,5 0,8zm14 -337l-66 252c10,4 20,10 28,18l413 -324c-5,-9 -9,-19 -11,-30l-270 9c-4,43 -40,76 -83,76 -4,0 -8,0 -11,-1zm796 2l-265 392c13,11 22,27 26,45l276 -25c2,-36 26,-67 59,-77l-55 -326c-1,0 -3,0 -4,0 -13,0 -26,-4 -37,-9zm-283 380l265 -392c-16,-14 -26,-35 -28,-57l-222 -14c-6,33 -33,60 -67,66l21 388c11,1 22,4 31,9zm485 21l222 -12c2,-26 17,-49 38,-63l-35 -72c-9,3 -18,4 -27,4 -22,0 -41,-8 -56,-21l-154 132c6,9 10,20 12,32zm223 9l-221 11c-3,31 -22,58 -49,70l64 204c4,0 9,-1 14,-1 15,0 28,4 40,10l178 -247c-13,-13 -22,-29 -26,-47zm-364 -405l56 327c1,0 2,0 4,0 21,0 41,8 55,21l154 -132c-9,-13 -14,-29 -14,-46 0,-14 4,-27 10,-38l-227 -156c-10,11 -23,20 -38,24zm53 -112l272 -77c-1,-4 -1,-9 -1,-13 0,-45 36,-82 82,-83l21 -203c-11,-3 -21,-8 -30,-14l-356 370c5,6 9,13 12,20zm278 -57l-272 77c0,4 1,8 1,12 0,14 -4,27 -10,39l226 156c16,-17 38,-28 63,-28 31,0 59,17 73,43l257 -101c-1,-6 -2,-13 -2,-20 0,-13 2,-24 7,-35l-202 -124c-15,19 -39,31 -65,31 -34,0 -64,-21 -76,-50zm-463 -679l89 242c6,-2 13,-2 19,-2 14,0 27,3 38,9l196 -285c-14,-12 -23,-29 -27,-47l-271 15c-2,30 -19,55 -44,68zm70 249l-90 -242c-6,2 -12,3 -19,3 -42,0 -77,-32 -82,-73l-251 0c-1,10 -5,20 -9,28l428 302c6,-7 14,-13 23,-18zm308 -814l24 384c13,1 25,4 36,10l132 -180c-16,-15 -26,-37 -26,-61 0,-17 5,-33 15,-47l-141 -125c-11,10 -25,16 -40,19zm76 406c14,14 24,32 26,52l261 6c3,-21 14,-40 30,-53l-110 -182c-10,5 -22,8 -34,8 -14,0 -28,-4 -40,-11l-133 180zm126 521l-22 203c37,9 64,42 64,81 0,12 -2,24 -7,34l202 125c5,-7 11,-12 17,-17l-226 -431c-9,3 -18,5 -28,5zm-2729 -1228c0,3 0,6 0,9 0,7 -1,14 -2,20l345 136c14,-26 42,-44 73,-44 15,0 28,4 40,10l168 -237c-9,-9 -17,-20 -22,-33l-602 139zm732 -102l248 407c10,-5 21,-7 34,-7 5,0 10,0 15,1l106 -332c-28,-13 -48,-42 -48,-75l-326 -39c-4,18 -14,34 -29,45zm230 418l-247 -407c-11,4 -22,7 -34,7 -15,0 -28,-4 -40,-10l-168 237c16,16 26,37 26,62 0,4 0,9 -1,13l439 130c6,-13 14,-24 25,-32zm262 -361l194 302c11,-5 23,-8 36,-8 26,0 49,12 65,30l340 -215c-5,-11 -8,-23 -8,-36 0,-1 0,-2 0,-4l-601 -108c-5,16 -14,29 -26,39zm646 126l-340 216c5,10 8,22 8,35l-1 1 425 60c6,-24 24,-45 48,-55l-64 -227c-4,0 -8,1 -12,1 -26,0 -49,-12 -64,-31zm-469 187l-195 -302c-11,6 -23,9 -36,9 -5,0 -10,-1 -15,-2l-106 332c22,11 40,32 46,57l276 -31c0,-25 12,-48 30,-63zm629 65c4,-1 8,-1 12,-1 31,0 58,17 72,42l318 -132c-2,-7 -3,-15 -3,-23 0,-5 0,-10 1,-16l-421 -139c-9,19 -24,33 -43,41l64 228zm-495 21c-6,19 -17,35 -33,46l163 314c9,-3 19,-5 29,-5 18,0 35,6 49,16l235 -256c-12,-15 -19,-33 -19,-54l0 -1 -424 -60zm223 385c10,12 17,27 19,43l251 0c4,-33 27,-60 57,-69l-39 -215c-1,0 -3,1 -4,1 -18,0 -35,-6 -49,-16l-235 256zm-668 -324l539 326c5,-7 11,-12 18,-17l-164 -314c-9,3 -19,5 -29,5 -39,0 -72,-27 -81,-64l-276 31c0,12 -3,23 -7,33zm522 390l-682 20c-2,20 -11,38 -25,51l228 300c13,-7 27,-12 42,-12 21,0 41,8 55,21l395 -346c-6,-10 -11,-22 -13,-34zm-683 -1l682 -20c1,-9 4,-18 7,-26l-539 -325c-15,19 -39,31 -65,31 -7,0 -14,-1 -20,-2l-108 281c23,12 39,35 43,61zm315 397c8,11 12,24 14,38l442 7c4,-32 27,-58 57,-68l-58 -303c-1,0 -3,1 -5,1 -21,0 -40,-8 -55,-21l-395 346zm-751 -963c-5,11 -12,20 -21,28l336 477c12,-6 25,-9 39,-9 7,0 14,0 20,2l107 -282c-26,-14 -44,-41 -44,-73 0,-5 1,-9 1,-13l-438 -130zm-38 40c-11,6 -25,10 -39,10 -4,0 -9,0 -13,-1l-110 370c29,13 50,42 50,77l0 1 424 60c4,-16 13,-29 24,-40l-336 -477zm-115 477c-4,16 -12,29 -24,39l300 415c12,-7 26,-10 40,-10 8,0 15,1 22,3l128 -313c-25,-14 -42,-41 -42,-72l0 -2 -424 -60zm-40 52c-10,5 -20,8 -32,9l-6 379c37,5 66,35 70,73l242 3c2,-20 12,-37 25,-50l-299 -414zm-604 913l345 98c13,-30 42,-51 77,-51 2,0 5,0 8,0l95 -412c-25,-9 -45,-31 -52,-57l-228 28c0,46 -37,83 -83,83 -13,0 -25,-3 -36,-8l-155 243c18,15 29,38 29,64 0,4 0,8 0,12zm545 -360l-95 412c16,6 30,16 40,30l216 -114c-3,-9 -5,-19 -5,-29 0,-27 12,-50 31,-65l-144 -241c-11,5 -22,7 -34,7 -3,0 -6,0 -9,0zm-206 478l-345 -98c-6,15 -17,28 -31,37l147 298c9,-3 18,-5 28,-5 18,0 35,6 48,16l172 -183c-12,-14 -20,-33 -20,-53 0,-4 1,-8 1,-12zm266 -496l145 241c11,-5 22,-7 34,-7 9,0 17,1 26,4l106 -228c-21,-13 -36,-35 -39,-61l-241 -3c-3,22 -14,41 -31,54zm792 -79l-354 24c-1,17 -7,32 -16,45l273 262c14,-11 32,-18 52,-18 5,0 10,0 14,1l79 -254c-24,-10 -42,-33 -48,-60zm-355 3l354 -23c1,-22 11,-41 25,-55l-228 -299c-12,7 -27,11 -42,11 -7,0 -15,-1 -22,-3l-128 312c21,12 36,33 41,57zm-30 81c-14,11 -32,18 -52,18 -9,0 -17,-1 -25,-4l-107 228c21,12 35,34 39,60l402 0c2,-15 8,-29 16,-40l-273 -262zm374 236c24,11 42,32 47,58l223 -19c0,-24 11,-45 27,-59l-166 -241c-11,6 -24,9 -38,9 -5,0 -10,-1 -14,-1l-79 253zm695 -409c2,0 4,0 5,0 39,0 71,26 81,61l311 -45 0 -1c0,-14 4,-28 10,-39l-428 -302c-10,11 -22,19 -36,24l57 302zm76 127l346 274c13,-12 29,-21 48,-23l0 -281c-34,-4 -61,-28 -70,-60l-311 45 0 1c0,16 -5,31 -13,44zm333 290l-345 -274c-8,8 -18,14 -29,18l49 192c3,0 6,0 9,0 45,0 81,34 84,78l222 14c1,-10 5,-19 10,-28zm-2398 493l-147 -297c-9,3 -18,4 -28,4 -20,0 -39,-7 -54,-20l-132 119c9,14 15,30 15,48 0,9 -1,17 -4,25l325 147c6,-10 15,-19 25,-26zm1729 -472l271 -10c2,-32 24,-58 52,-70l-48 -192c-3,0 -6,1 -10,1 -18,0 -35,-6 -49,-16l-234 247c9,11 16,25 18,40zm183 -346l-442 -7c-3,20 -13,38 -27,51l165 241c12,-6 25,-10 39,-10 18,0 35,6 49,17l234 -248c-10,-12 -17,-27 -18,-44zm-2192 976l244 -74c-1,-5 -2,-10 -2,-15 0,-8 2,-16 4,-24l-324 -147c-10,16 -26,28 -44,35l39 176c2,0 5,0 7,0 34,0 63,20 76,49zm-367 -92l218 86c10,-18 26,-32 45,-39l-38 -176c-2,0 -5,0 -7,0 -26,0 -49,-11 -64,-30l-160 102c5,11 8,23 8,36 0,7 -1,14 -2,21zm-250 -327l136 230c10,-5 21,-7 33,-7 26,0 49,11 64,30l159 -102c-5,-11 -8,-23 -8,-36 0,-6 1,-12 2,-17l-363 -127c-5,11 -13,21 -23,29zm521 -453l-37 486c14,3 27,10 38,19l132 -119c-9,-14 -15,-30 -15,-48 0,-29 15,-55 38,-70l-133 -272c-8,2 -15,4 -23,4zm-58 485l37 -487c-19,-3 -35,-13 -47,-27l-185 120c6,11 9,23 9,36 0,26 -12,50 -31,65l187 300c9,-4 20,-7 30,-7zm-433 -81l363 127c5,-11 13,-20 22,-28l-187 -300c-10,5 -22,8 -35,8 -18,0 -35,-6 -49,-16l-131 139c12,14 19,33 19,53 0,6 -1,12 -2,17zm532 -418l133 273c9,-3 18,-4 27,-4 13,0 25,3 36,8l156 -243c-18,-15 -29,-36 -30,-61l-286 -25c-5,22 -18,41 -36,52zm443 -104l309 -456c-15,-13 -25,-30 -28,-50l-500 15c-3,27 -18,49 -39,63l195 423c8,-3 16,-4 25,-4 14,0 27,3 38,9zm326 -444l-309 455c12,11 22,26 26,42l228 -28c0,-43 32,-78 74,-83l7 -378c-9,-1 -18,-4 -26,-8zm-731 476l286 24c4,-22 18,-41 37,-53l-195 -423c-8,3 -17,4 -25,4 -6,0 -12,0 -18,-1l-131 377c26,13 45,40 46,72zm-914 -184l241 577c5,-2 10,-3 16,-3l24 -404c-39,-7 -68,-41 -68,-81 0,-10 2,-18 4,-27l-188 -90c-7,12 -17,21 -29,28zm302 172l-24 403c12,2 24,7 34,15l131 -140c-12,-14 -19,-33 -19,-53 0,-24 11,-47 28,-62l-118 -172c-9,5 -21,8 -32,9zm50 -21l117 172c12,-6 25,-9 38,-9 26,0 49,12 64,30l185 -121c-6,-11 -9,-23 -9,-36 0,-2 0,-3 1,-5l-372 -68c-5,14 -13,27 -24,37zm27 -58l372 69c4,-13 11,-24 20,-34l-250 -316c-12,8 -27,12 -43,12 -10,0 -20,-1 -29,-5l-105 201c21,15 36,40 36,69 0,1 0,3 -1,4zm158 -293l250 316c13,-8 28,-12 44,-12 6,0 11,0 17,1l132 -377c-21,-11 -37,-29 -43,-51l-376 61c0,1 0,2 0,3 0,23 -9,44 -24,59zm769 -509l452 -167c-1,-6 -2,-13 -2,-19 0,-7 1,-14 3,-21l-346 -135c-14,26 -42,43 -73,43 -4,0 -7,0 -11,-1l-66 262c18,7 34,21 43,38zm459 -148l-452 168c2,6 2,12 2,19 0,13 -3,26 -9,37l314 212c15,-18 38,-29 63,-29 4,0 9,1 13,1l110 -370c-18,-8 -32,-21 -41,-38zm-666 497l501 -14c1,-11 4,-21 8,-30l-313 -211c-15,17 -38,28 -63,28 -13,0 -26,-3 -37,-9l-124 186c15,13 25,30 28,50zm-147 -39l-257 -263c-14,10 -32,16 -50,16 -7,0 -13,0 -18,-1l-112 314c21,10 36,28 43,51l375 -62c0,-1 0,-2 0,-3 0,-20 7,-38 19,-52zm102 -22l124 -186c-17,-15 -28,-37 -29,-61l-423 -42c-3,12 -9,24 -16,33l256 264c14,-11 32,-17 51,-17 13,0 26,3 37,9zm-326 -310l423 42c8,-37 42,-64 81,-64 4,0 7,0 10,0l67 -261c-15,-6 -28,-16 -38,-30l-548 286c3,9 5,18 5,27zm-121 77c-5,-3 -10,-6 -15,-10l-566 542c3,3 5,7 7,12l364 -131c-1,-5 -2,-12 -2,-18 0,-46 37,-83 83,-83 6,0 12,1 18,2l111 -314zm-176 464c-12,-8 -21,-19 -27,-31l-364 130c2,6 2,12 2,18 0,9 -1,18 -4,27l188 90c15,-23 41,-39 70,-39 11,0 20,2 29,6l106 -201z"/>
   </g>
  </g>
  <g>
   <path class="fil3 str1" d="M2550 2874c29,7 55,22 75,42 28,28 45,66 45,108l0 2c0,43 -17,81 -45,110 -28,28 -67,45 -110,45 -43,0 -82,-17 -110,-45 -28,-29 -45,-67 -45,-110 0,-43 17,-82 45,-110 20,-20 46,-35 75,-42l0 -521c-29,-7 -55,-22 -75,-42 -28,-28 -45,-67 -45,-110 0,-43 17,-82 45,-110 20,-20 46,-35 75,-41l0 -522c-29,-7 -55,-21 -75,-42 -28,-28 -45,-67 -45,-109 0,-43 17,-82 45,-110 28,-28 67,-46 110,-46 43,0 82,18 110,46 20,20 35,46 41,74l522 0c7,-28 21,-54 42,-74 28,-28 67,-46 110,-46 42,0 81,18 109,46 29,28 46,67 46,110 0,42 -17,81 -46,109 -20,21 -45,35 -74,42l0 522c29,6 54,21 74,41 29,28 46,67 46,110 0,43 -17,82 -46,110 -28,28 -67,45 -109,45 -43,0 -82,-17 -110,-45 -21,-20 -35,-46 -42,-75l-522 0c-3,17 -10,33 -19,47l610 611c24,-15 52,-24 83,-24 42,0 81,18 109,46 29,28 46,67 46,110 0,43 -17,81 -46,110 -28,28 -67,45 -109,45 -43,0 -82,-17 -110,-45 -28,-29 -46,-67 -46,-110l0 -1c0,-30 9,-58 24,-82l-611 -610c-14,9 -30,16 -47,20l0 521zm3118 -1346l0 673 0 673c29,7 54,22 75,42 20,20 34,46 41,74l522 0c7,-28 21,-54 41,-74 12,-12 26,-22 41,-29 21,-11 44,-17 69,-17 43,0 82,18 110,46 28,28 46,67 46,110 0,43 -18,81 -46,110 -28,28 -67,45 -110,45 -43,0 -81,-17 -110,-45 -20,-21 -34,-46 -41,-75l-522 0c-7,29 -21,54 -41,75 -28,28 -67,45 -110,45 -43,0 -82,-17 -110,-45 -28,-29 -46,-67 -46,-110 0,-43 18,-82 46,-110 20,-20 46,-35 75,-42l0 -673 0 -673c-29,-7 -55,-21 -75,-42 -28,-28 -46,-67 -46,-109 0,-43 18,-82 46,-110 28,-28 67,-46 110,-46 43,0 82,18 110,46 28,28 45,67 45,110 0,42 -17,81 -45,109 -12,12 -25,22 -39,29 -12,6 -24,10 -36,13zm-1063 1168l198 198c15,-9 30,-16 47,-20l0 -673 0 -673c-28,-7 -54,-21 -74,-42 -21,-20 -35,-45 -42,-74l-522 0c-6,29 -21,54 -41,74 -20,21 -46,35 -75,42l0 673 0 673c29,7 55,22 75,42 20,20 35,46 41,74l522 0c4,-16 11,-32 20,-47l-199 -198c-23,15 -52,24 -82,24 -43,0 -81,-18 -110,-46 -28,-28 -45,-67 -45,-110 0,-43 17,-81 45,-110 29,-28 67,-45 110,-45 43,0 82,17 110,45 28,29 46,67 46,110 0,31 -9,59 -24,83zm415 408l252 239c25,-17 54,-26 86,-26 43,0 82,17 110,45 28,28 45,67 45,110 0,43 -17,82 -45,110 -28,28 -67,46 -110,46 -43,0 -82,-18 -110,-46 -28,-28 -45,-67 -45,-110 0,-28 7,-55 21,-78l-253 -239c-24,16 -54,26 -85,26 -43,0 -82,-17 -110,-45 -21,-21 -35,-46 -42,-75l-522 0c-6,29 -21,54 -41,75 -28,28 -67,45 -110,45 -43,0 -82,-17 -110,-45 -28,-29 -45,-67 -45,-110 0,-43 17,-82 45,-110 20,-20 46,-35 75,-42l0 -673 0 -673c-29,-7 -55,-21 -75,-42 -28,-28 -45,-67 -45,-109 0,-43 17,-82 45,-110 28,-28 67,-46 110,-46 43,0 82,18 110,46 20,20 35,46 41,74l522 0c7,-28 21,-54 42,-74 28,-28 67,-46 110,-46 42,0 81,18 109,46 29,28 46,67 46,110 0,42 -17,81 -46,109 -20,21 -46,35 -74,42l0 673 0 673c28,7 54,22 74,42 29,28 46,67 46,110 0,28 -8,55 -21,78zm-2470 -1576l0 522c29,6 55,21 75,41 20,20 35,46 41,75l522 0c7,-29 21,-55 42,-75 20,-20 46,-35 74,-41l0 -522c-28,-7 -54,-21 -74,-42 -21,-20 -35,-45 -42,-74l-522 0c-6,29 -21,54 -41,74 -20,21 -46,35 -75,42z"/>
   <path id="1" class="fil4" d="M2550 2874c29,7 55,22 75,42 28,28 45,66 45,108l0 2c0,43 -17,81 -45,110 -28,28 -67,45 -110,45 -43,0 -82,-17 -110,-45 -28,-29 -45,-67 -45,-110 0,-43 17,-82 45,-110 20,-20 46,-35 75,-42l0 -521c-29,-7 -55,-22 -75,-42 -28,-28 -45,-67 -45,-110 0,-43 17,-82 45,-110 20,-20 46,-35 75,-41l0 -522c-29,-7 -55,-21 -75,-42 -28,-28 -45,-67 -45,-109 0,-43 17,-82 45,-110 28,-28 67,-46 110,-46 43,0 82,18 110,46 20,20 35,46 41,74l522 0c7,-28 21,-54 42,-74 28,-28 67,-46 110,-46 42,0 81,18 109,46 29,28 46,67 46,110 0,42 -17,81 -46,109 -20,21 -45,35 -74,42l0 522c29,6 54,21 74,41 29,28 46,67 46,110 0,43 -17,82 -46,110 -28,28 -67,45 -109,45 -43,0 -82,-17 -110,-45 -21,-20 -35,-46 -42,-75l-522 0c-3,17 -10,33 -19,47l610 611c24,-15 52,-24 83,-24 42,0 81,18 109,46 29,28 46,67 46,110 0,43 -17,81 -46,110 -28,28 -67,45 -109,45 -43,0 -82,-17 -110,-45 -28,-29 -46,-67 -46,-110l0 -1c0,-30 9,-58 24,-82l-611 -610c-14,9 -30,16 -47,20l0 521zm3118 -1346l0 673 0 673c29,7 54,22 75,42 20,20 34,46 41,74l522 0c7,-28 21,-54 41,-74 12,-12 26,-22 41,-29 21,-11 44,-17 69,-17 43,0 82,18 110,46 28,28 46,67 46,110 0,43 -18,81 -46,110 -28,28 -67,45 -110,45 -43,0 -81,-17 -110,-45 -20,-21 -34,-46 -41,-75l-522 0c-7,29 -21,54 -41,75 -28,28 -67,45 -110,45 -43,0 -82,-17 -110,-45 -28,-29 -46,-67 -46,-110 0,-43 18,-82 46,-110 20,-20 46,-35 75,-42l0 -673 0 -673c-29,-7 -55,-21 -75,-42 -28,-28 -46,-67 -46,-109 0,-43 18,-82 46,-110 28,-28 67,-46 110,-46 43,0 82,18 110,46 28,28 45,67 45,110 0,42 -17,81 -45,109 -12,12 -25,22 -39,29 -12,6 -24,10 -36,13zm-1063 1168l198 198c15,-9 30,-16 47,-20l0 -673 0 -673c-28,-7 -54,-21 -74,-42 -21,-20 -35,-45 -42,-74l-522 0c-6,29 -21,54 -41,74 -20,21 -46,35 -75,42l0 673 0 673c29,7 55,22 75,42 20,20 35,46 41,74l522 0c4,-16 11,-32 20,-47l-199 -198c-23,15 -52,24 -82,24 -43,0 -81,-18 -110,-46 -28,-28 -45,-67 -45,-110 0,-43 17,-81 45,-110 29,-28 67,-45 110,-45 43,0 82,17 110,45 28,29 46,67 46,110 0,31 -9,59 -24,83zm415 408l252 239c25,-17 54,-26 86,-26 43,0 82,17 110,45 28,28 45,67 45,110 0,43 -17,82 -45,110 -28,28 -67,46 -110,46 -43,0 -82,-18 -110,-46 -28,-28 -45,-67 -45,-110 0,-28 7,-55 21,-78l-253 -239c-24,16 -54,26 -85,26 -43,0 -82,-17 -110,-45 -21,-21 -35,-46 -42,-75l-522 0c-6,29 -21,54 -41,75 -28,28 -67,45 -110,45 -43,0 -82,-17 -110,-45 -28,-29 -45,-67 -45,-110 0,-43 17,-82 45,-110 20,-20 46,-35 75,-42l0 -673 0 -673c-29,-7 -55,-21 -75,-42 -28,-28 -45,-67 -45,-109 0,-43 17,-82 45,-110 28,-28 67,-46 110,-46 43,0 82,18 110,46 20,20 35,46 41,74l522 0c7,-28 21,-54 42,-74 28,-28 67,-46 110,-46 42,0 81,18 109,46 29,28 46,67 46,110 0,42 -17,81 -46,109 -20,21 -46,35 -74,42l0 673 0 673c28,7 54,22 74,42 29,28 46,67 46,110 0,28 -8,55 -21,78zm-2470 -1576l0 522c29,6 55,21 75,41 20,20 35,46 41,75l522 0c7,-29 21,-55 42,-75 20,-20 46,-35 74,-41l0 -522c-28,-7 -54,-21 -74,-42 -21,-20 -35,-45 -42,-74l-522 0c-6,29 -21,54 -41,74 -20,21 -46,35 -75,42z"/>
  </g>
  <ellipse class="fil0" cx="1077" cy="570" rx="1016" ry="508"/>
 </g>
</svg>
