<?xml version="1.0" encoding="UTF-8"?>
<!DOCTYPE svg PUBLIC "-//W3C//DTD SVG 1.1//EN" "http://www.w3.org/Graphics/SVG/1.1/DTD/svg11.dtd">
<!-- Creator: CorelDRAW X6 -->
<svg xmlns="http://www.w3.org/2000/svg" xml:space="preserve" width="46.5666mm" height="46.5666mm" version="1.1" style="shape-rendering:geometricPrecision; text-rendering:geometricPrecision; image-rendering:optimizeQuality; fill-rule:evenodd; clip-rule:evenodd"
viewBox="0 0 294 294"
 xmlns:xlink="http://www.w3.org/1999/xlink">
 <defs>
  <style type="text/css">
   <![CDATA[
    .str0 {stroke:#373435;stroke-width:1.26368}
    .fil1 {fill:#373435}
    .fil0 {fill:#A9ABAE}
    .fil2 {fill:#FEFEFE}
   ]]>
  </style>
 </defs>
 <g id="Layer_x0020_1">
  <metadata id="CorelCorpID_0Corel-Layer"/>
  <circle class="fil0" cx="147" cy="147" r="147"/>
  <g id="_482158856">
   <rect class="fil1 str0" x="94" y="69" width="29" height="78" rx="14" ry="14"/>
   <rect class="fil1 str0" x="171" y="69" width="29" height="78" rx="14" ry="14"/>
  </g>
  <path class="fil1" d="M229 190c2,4 2,8 2,13 0,30 -38,54 -84,54 -46,0 -84,-24 -84,-54 0,-4 1,-9 2,-13l163 0z"/>
  <path class="fil2" d="M74 190l145 0 0 0c0,6 -5,11 -11,11l-123 0c-6,0 -11,-5 -11,-11l0 0z"/>
 </g>
</svg>
